<?xml version="1.0" standalone="no"?>
<svg xmlns:xlink="http://www.w3.org/1999/xlink" id="wave" style="transform:rotate(0deg); transition: 0.3s" viewBox="0 0 1440 310" version="1.1" xmlns="http://www.w3.org/2000/svg"><defs><linearGradient id="sw-gradient-0" x1="0" x2="0" y1="1" y2="0"><stop stop-color="rgba(255, 255, 255, 1)" offset="0%"/><stop stop-color="rgba(255, 255, 255, 1)" offset="100%"/></linearGradient></defs><path style="transform:translate(0, 0px); opacity:1" fill="url(#sw-gradient-0)" d="M0,31L40,25.8C80,21,160,10,240,36.2C320,62,400,124,480,160.2C560,196,640,207,720,196.3C800,186,880,155,960,118.8C1040,83,1120,41,1200,62C1280,83,1360,165,1440,211.8C1520,258,1600,269,1680,253.2C1760,238,1840,196,1920,186C2000,176,2080,196,2160,201.5C2240,207,2320,196,2400,191.2C2480,186,2560,186,2640,155C2720,124,2800,62,2880,31C2960,0,3040,0,3120,15.5C3200,31,3280,62,3360,93C3440,124,3520,155,3600,180.8C3680,207,3760,227,3840,211.8C3920,196,4000,145,4080,124C4160,103,4240,114,4320,108.5C4400,103,4480,83,4560,77.5C4640,72,4720,83,4800,103.3C4880,124,4960,155,5040,180.8C5120,207,5200,227,5280,211.8C5360,196,5440,145,5520,139.5C5600,134,5680,176,5720,196.3L5760,217L5760,310L5720,310C5680,310,5600,310,5520,310C5440,310,5360,310,5280,310C5200,310,5120,310,5040,310C4960,310,4880,310,4800,310C4720,310,4640,310,4560,310C4480,310,4400,310,4320,310C4240,310,4160,310,4080,310C4000,310,3920,310,3840,310C3760,310,3680,310,3600,310C3520,310,3440,310,3360,310C3280,310,3200,310,3120,310C3040,310,2960,310,2880,310C2800,310,2720,310,2640,310C2560,310,2480,310,2400,310C2320,310,2240,310,2160,310C2080,310,2000,310,1920,310C1840,310,1760,310,1680,310C1600,310,1520,310,1440,310C1360,310,1280,310,1200,310C1120,310,1040,310,960,310C880,310,800,310,720,310C640,310,560,310,480,310C400,310,320,310,240,310C160,310,80,310,40,310L0,310Z"/></svg>