<?xml version="1.0" standalone="no"?>
<svg xmlns:xlink="http://www.w3.org/1999/xlink" id="wave" style="transform:rotate(0deg); transition: 0.3s" viewBox="0 0 1440 170" version="1.1" xmlns="http://www.w3.org/2000/svg"><defs><linearGradient id="sw-gradient-0" x1="0" x2="0" y1="1" y2="0"><stop stop-color="rgba(255, 255, 255, 1)" offset="0%"/><stop stop-color="rgba(255, 255, 255, 1)" offset="100%"/></linearGradient></defs><path style="transform:translate(0, 0px); opacity:1" fill="url(#sw-gradient-0)" d="M0,85L34.3,96.3C68.6,108,137,130,206,138.8C274.3,147,343,142,411,119C480,96,549,57,617,56.7C685.7,57,754,96,823,116.2C891.4,136,960,136,1029,113.3C1097.1,91,1166,45,1234,42.5C1302.9,40,1371,79,1440,82.2C1508.6,85,1577,51,1646,39.7C1714.3,28,1783,40,1851,48.2C1920,57,1989,62,2057,79.3C2125.7,96,2194,125,2263,133.2C2331.4,142,2400,130,2469,110.5C2537.1,91,2606,62,2674,42.5C2742.9,23,2811,11,2880,31.2C2948.6,51,3017,102,3086,113.3C3154.3,125,3223,96,3291,90.7C3360,85,3429,102,3497,96.3C3565.7,91,3634,62,3703,56.7C3771.4,51,3840,68,3909,70.8C3977.1,74,4046,62,4114,68C4182.9,74,4251,96,4320,96.3C4388.6,96,4457,74,4526,62.3C4594.3,51,4663,51,4731,45.3C4800,40,4869,28,4903,22.7L4937.1,17L4937.1,170L4902.9,170C4868.6,170,4800,170,4731,170C4662.9,170,4594,170,4526,170C4457.1,170,4389,170,4320,170C4251.4,170,4183,170,4114,170C4045.7,170,3977,170,3909,170C3840,170,3771,170,3703,170C3634.3,170,3566,170,3497,170C3428.6,170,3360,170,3291,170C3222.9,170,3154,170,3086,170C3017.1,170,2949,170,2880,170C2811.4,170,2743,170,2674,170C2605.7,170,2537,170,2469,170C2400,170,2331,170,2263,170C2194.3,170,2126,170,2057,170C1988.6,170,1920,170,1851,170C1782.9,170,1714,170,1646,170C1577.1,170,1509,170,1440,170C1371.4,170,1303,170,1234,170C1165.7,170,1097,170,1029,170C960,170,891,170,823,170C754.3,170,686,170,617,170C548.6,170,480,170,411,170C342.9,170,274,170,206,170C137.1,170,69,170,34,170L0,170Z"/></svg>