<?xml version="1.0" standalone="no"?>
<svg xmlns:xlink="http://www.w3.org/1999/xlink" id="wave" style="transform:rotate(180deg); transition: 0.3s" viewBox="0 0 1440 270" version="1.1" xmlns="http://www.w3.org/2000/svg"><defs><linearGradient id="sw-gradient-0" x1="0" x2="0" y1="1" y2="0"><stop stop-color="rgba(0, 0, 0, 1)" offset="0%"/><stop stop-color="rgba(0, 0, 0, 1)" offset="100%"/></linearGradient></defs><path style="transform:translate(0, 0px); opacity:1" fill="url(#sw-gradient-0)" d="M0,27L120,63C240,99,480,171,720,198C960,225,1200,207,1440,184.5C1680,162,1920,135,2160,130.5C2400,126,2640,144,2880,166.5C3120,189,3360,216,3600,189C3840,162,4080,81,4320,49.5C4560,18,4800,36,5040,58.5C5280,81,5520,108,5760,139.5C6000,171,6240,207,6480,211.5C6720,216,6960,189,7200,148.5C7440,108,7680,54,7920,27C8160,0,8400,0,8640,27C8880,54,9120,108,9360,117C9600,126,9840,90,10080,90C10320,90,10560,126,10800,130.5C11040,135,11280,108,11520,121.5C11760,135,12000,189,12240,211.5C12480,234,12720,225,12960,184.5C13200,144,13440,72,13680,67.5C13920,63,14160,126,14400,153C14640,180,14880,171,15120,153C15360,135,15600,108,15840,108C16080,108,16320,135,16560,139.5C16800,144,17040,126,17160,117L17280,108L17280,270L17160,270C17040,270,16800,270,16560,270C16320,270,16080,270,15840,270C15600,270,15360,270,15120,270C14880,270,14640,270,14400,270C14160,270,13920,270,13680,270C13440,270,13200,270,12960,270C12720,270,12480,270,12240,270C12000,270,11760,270,11520,270C11280,270,11040,270,10800,270C10560,270,10320,270,10080,270C9840,270,9600,270,9360,270C9120,270,8880,270,8640,270C8400,270,8160,270,7920,270C7680,270,7440,270,7200,270C6960,270,6720,270,6480,270C6240,270,6000,270,5760,270C5520,270,5280,270,5040,270C4800,270,4560,270,4320,270C4080,270,3840,270,3600,270C3360,270,3120,270,2880,270C2640,270,2400,270,2160,270C1920,270,1680,270,1440,270C1200,270,960,270,720,270C480,270,240,270,120,270L0,270Z"/></svg>