<?xml version="1.0" standalone="no"?>
<svg xmlns:xlink="http://www.w3.org/1999/xlink" id="wave" style="transform:rotate(0deg); transition: 0.3s" viewBox="0 0 1440 240" version="1.1" xmlns="http://www.w3.org/2000/svg"><defs><linearGradient id="sw-gradient-0" x1="0" x2="0" y1="1" y2="0"><stop stop-color="rgba(0, 0, 0, 1)" offset="0%"/><stop stop-color="rgba(0, 0, 0, 1)" offset="100%"/></linearGradient></defs><path style="transform:translate(0, 0px); opacity:1" fill="url(#sw-gradient-0)" d="M0,48L60,56C120,64,240,80,360,76C480,72,600,48,720,68C840,88,960,152,1080,148C1200,144,1320,72,1440,48C1560,24,1680,48,1800,84C1920,120,2040,168,2160,168C2280,168,2400,120,2520,100C2640,80,2760,88,2880,84C3000,80,3120,64,3240,68C3360,72,3480,96,3600,112C3720,128,3840,136,3960,140C4080,144,4200,144,4320,132C4440,120,4560,96,4680,104C4800,112,4920,152,5040,156C5160,160,5280,128,5400,128C5520,128,5640,160,5760,168C5880,176,6000,160,6120,164C6240,168,6360,192,6480,176C6600,160,6720,104,6840,84C6960,64,7080,80,7200,100C7320,120,7440,144,7560,164C7680,184,7800,200,7920,196C8040,192,8160,168,8280,148C8400,128,8520,112,8580,104L8640,96L8640,240L8580,240C8520,240,8400,240,8280,240C8160,240,8040,240,7920,240C7800,240,7680,240,7560,240C7440,240,7320,240,7200,240C7080,240,6960,240,6840,240C6720,240,6600,240,6480,240C6360,240,6240,240,6120,240C6000,240,5880,240,5760,240C5640,240,5520,240,5400,240C5280,240,5160,240,5040,240C4920,240,4800,240,4680,240C4560,240,4440,240,4320,240C4200,240,4080,240,3960,240C3840,240,3720,240,3600,240C3480,240,3360,240,3240,240C3120,240,3000,240,2880,240C2760,240,2640,240,2520,240C2400,240,2280,240,2160,240C2040,240,1920,240,1800,240C1680,240,1560,240,1440,240C1320,240,1200,240,1080,240C960,240,840,240,720,240C600,240,480,240,360,240C240,240,120,240,60,240L0,240Z"/></svg>